<svg version="1.1" xmlns="http://www.w3.org/2000/svg" viewBox="-1527.052400983636 -4549.884682448245 9104.775972968355 6943.678884607953"><desc>Created with Snap</desc><defs></defs><g><g transform="matrix(21.6945,0,0,21.6945,-1396.2367,-5455.8669)">
<g id="gSlx06de4wad">
	<path d="M317.9281,155.65147c-30.98956,7.31404-46.23932-11.77283-62.95764-64.39297
		c-22.81844-71.81998-97.04111-20.6673-137.30415,34.09873c-36.01472,48.98745-100.43337,28.2066-108.71796,96.60006
		C1.05756,287.09979,51.2933,341.39026,114.88862,347.1629c44.93644,4.07898,74.15717-17.45844,113.5048-32.92603
		c50.53844-19.86673,37.44051-0.93326,86.27327,8.58145c60.94122,11.87393,88.18268-44.41559,84.49582-82.9597
		S385.17041,139.7812,317.9281,155.65147z" fill="#143d59" style=""></path>
</g>


<desc>Created with Snap</desc><defs></defs></g><g><g transform="matrix(1.024,0,0,-1.024,0,0)"><path d="M113 480L36 499L36 540L210 540L210 60L287 41L287 0L36 0L36 41L113 60L113 480ZM99 701Q99 730 115 747Q132 764 161 764Q190 764 207 747Q224 730 224 701Q224 672 207 655Q190 639 161 639Q132 639 115 655Q99 672 99 701ZM425 60L425 480L348 499L348 540L492 540L514 440L518 440Q547 491 595 520Q644 550 699 550Q741 550 772 534Q804 519 819 496Q835 471 845 430Q877 487 928 518Q979 550 1037 550Q1077 550 1109 534Q1141 519 1158 492Q1167 478 1173 458Q1179 438 1183 408Q1187 379 1188 339Q1190 299 1190 245L1190 60L1267 41L1267 0L1026 0L1026 41L1093 60L1093 283Q1093 347 1089 379Q1086 412 1077 430Q1052 479 993 479Q967 479 943 469Q920 459 901 442Q879 422 868 395Q858 369 856 327L856 60L923 41L923 0L692 0L692 41L759 60L759 283Q759 347 755 379Q752 412 743 430Q718 479 659 479Q633 479 609 469Q586 459 567 442Q545 422 534 395Q524 369 522 327L522 60L589 41L589 0L348 0L348 41L425 60ZM1400 60L1400 480L1323 499L1323 540L1467 540L1489 440L1493 440Q1522 491 1570 520Q1619 550 1674 550Q1716 550 1747 534Q1779 519 1794 496Q1810 471 1820 430Q1852 487 1903 518Q1954 550 2012 550Q2052 550 2084 534Q2116 519 2133 492Q2142 478 2148 458Q2154 438 2158 408Q2162 379 2163 339Q2165 299 2165 245L2165 60L2242 41L2242 0L2001 0L2001 41L2068 60L2068 283Q2068 347 2064 379Q2061 412 2052 430Q2027 479 1968 479Q1942 479 1918 469Q1895 459 1876 442Q1854 422 1843 395Q1833 369 1831 327L1831 60L1898 41L1898 0L1667 0L1667 41L1734 60L1734 283Q1734 347 1730 379Q1727 412 1718 430Q1693 479 1634 479Q1608 479 1584 469Q1561 459 1542 442Q1520 422 1509 395Q1499 369 1497 327L1497 60L1564 41L1564 0L1323 0L1323 41L1400 60ZM2798 275Q2798 209 2778 151Q2759 93 2724 55Q2665 -10 2550 -10Q2438 -10 2379 53Q2345 90 2326 144Q2308 199 2308 263Q2308 329 2327 388Q2346 447 2382 485Q2414 519 2456 534Q2498 550 2554 550Q2609 550 2653 534Q2697 519 2727 487Q2762 450 2780 394Q2798 339 2798 275ZM2415 274Q2415 154 2451 95Q2468 69 2491 55Q2515 42 2553 42Q2622 42 2656 89Q2674 115 2682 161Q2691 207 2691 267Q2691 386 2655 445Q2638 471 2614 484Q2590 498 2552 498Q2482 498 2451 452Q2415 396 2415 274ZM3192 -10L3089 -10L2911 480L2855 499L2855 540L3079 540L3079 499L3013 480L3154 61L3158 61L3299 480L3237 499L3237 540L3427 540L3427 499L3369 480L3192 -10ZM3475 117Q3475 156 3492 186Q3510 216 3548 239Q3586 263 3646 280Q3706 297 3790 310Q3785 369 3778 402Q3772 435 3761 455Q3747 481 3722 493Q3697 506 3668 506Q3640 506 3617 496Q3595 486 3587 469Q3601 458 3607 442Q3614 427 3614 413Q3614 388 3597 373Q3581 359 3557 359Q3533 359 3517 375Q3502 391 3502 420Q3502 451 3519 475Q3536 500 3563 516Q3591 533 3625 541Q3660 550 3694 550Q3779 550 3828 501Q3890 439 3890 281L3890 136Q3890 86 3896 67Q3903 49 3925 49L3970 49L3970 19Q3898 -10 3858 -10Q3843 -10 3833 -5Q3823 0 3817 12Q3811 25 3808 46Q3806 67 3806 99L3802 99Q3771 48 3720 19Q3669 -10 3610 -10Q3547 -10 3511 23Q3475 57 3475 117ZM3652 48Q3680 48 3710 62Q3741 77 3762 103Q3793 141 3793 215Q3793 232 3792 248Q3791 265 3789 280Q3728 268 3687 255Q3647 242 3622 225Q3598 209 3588 187Q3578 166 3578 138Q3578 95 3597 71Q3617 48 3652 48ZM4529 275Q4529 209 4510 151Q4491 94 4457 55Q4401 -10 4296 -10Q4245 -10 4205 13Q4165 37 4134 101L4104 0L4057 0L4057 720L3980 739L3980 780L4154 780L4154 482Q4184 520 4221 535Q4258 550 4304 550Q4355 550 4396 535Q4438 520 4464 487Q4495 449 4512 394Q4529 339 4529 275ZM4154 274Q4154 151 4189 95Q4205 69 4228 55Q4251 42 4289 42Q4357 42 4390 89Q4408 115 4416 161Q4424 207 4424 267Q4424 387 4389 445Q4372 471 4349 484Q4326 498 4288 498Q4253 498 4228 486Q4203 475 4189 452Q4172 424 4163 379Q4154 335 4154 274ZM4680 60L4680 720L4603 739L4603 780L4777 780L4777 60L4854 41L4854 0L4603 0L4603 41L4680 60ZM5380 264L5031 264Q5031 191 5051 143Q5071 96 5107 76Q5144 57 5188 57Q5236 57 5274 76Q5313 96 5344 130L5376 106Q5358 82 5337 61Q5317 40 5291 24Q5265 8 5233 -1Q5201 -10 5162 -10Q5093 -10 5040 19Q4987 49 4959 106Q4944 137 4937 174Q4930 212 4930 256Q4930 397 4994 473Q5058 550 5170 550Q5273 550 5328 486Q5383 423 5383 311Q5383 301 5382 292Q5382 284 5380 264ZM5164 496Q5044 496 5032 313L5282 313L5282 346Q5282 418 5251 457Q5221 496 5164 496ZM5671 36Q5728 36 5763 58Q5798 81 5798 123Q5798 148 5785 165Q5772 182 5751 194Q5731 206 5705 214Q5680 223 5656 230Q5625 239 5595 251Q5566 263 5542 281Q5519 300 5505 326Q5491 353 5491 391Q5491 463 5543 506Q5596 550 5690 550Q5770 550 5816 516Q5863 483 5863 425Q5863 393 5849 375Q5835 357 5809 357Q5786 357 5771 371Q5756 385 5756 407Q5756 426 5766 441Q5776 457 5792 464Q5777 485 5753 494Q5730 504 5693 504Q5573 504 5573 419Q5573 396 5581 381Q5589 366 5605 355Q5621 344 5644 335Q5668 327 5699 317Q5733 306 5766 294Q5799 282 5825 264Q5852 246 5868 219Q5885 192 5885 152Q5885 113 5869 83Q5853 53 5824 32Q5795 12 5755 1Q5715 -10 5667 -10Q5578 -10 5524 25Q5471 61 5471 123Q5471 155 5485 173Q5500 192 5527 192Q5551 192 5567 178Q5584 164 5584 141Q5584 122 5573 105Q5563 88 5548 80Q5561 60 5594 48Q5628 36 5671 36Z" fill="#f4b41a" style=""></path></g></g></g></svg>